solid wearable_casing_top
  facet normal 0.000000 0.000000 -1.000000
    outer loop
      vertex -20.000 -20.000 10.000
      vertex 20.000 20.000 10.000
      vertex 20.000 -20.000 10.000
    endloop
  endfacet
  facet normal 0.000000 0.000000 -1.000000
    outer loop
      vertex -20.000 -20.000 10.000
      vertex -20.000 20.000 10.000
      vertex 20.000 20.000 10.000
    endloop
  endfacet
  facet normal 0.000000 0.000000 1.000000
    outer loop
      vertex -20.000 -20.000 12.000
      vertex 20.000 -20.000 12.000
      vertex 20.000 20.000 12.000
    endloop
  endfacet
  facet normal 0.000000 0.000000 1.000000
    outer loop
      vertex -20.000 -20.000 12.000
      vertex 20.000 20.000 12.000
      vertex -20.000 20.000 12.000
    endloop
  endfacet
  facet normal 0.000000 -1.000000 0.000000
    outer loop
      vertex -20.000 -20.000 10.000
      vertex 20.000 -20.000 10.000
      vertex 20.000 -20.000 12.000
    endloop
  endfacet
  facet normal 0.000000 -1.000000 0.000000
    outer loop
      vertex -20.000 -20.000 10.000
      vertex 20.000 -20.000 12.000
      vertex -20.000 -20.000 12.000
    endloop
  endfacet
  facet normal 0.000000 1.000000 0.000000
    outer loop
      vertex 20.000 20.000 10.000
      vertex -20.000 20.000 10.000
      vertex -20.000 20.000 12.000
    endloop
  endfacet
  facet normal 0.000000 1.000000 0.000000
    outer loop
      vertex 20.000 20.000 10.000
      vertex -20.000 20.000 12.000
      vertex 20.000 20.000 12.000
    endloop
  endfacet
  facet normal -1.000000 0.000000 0.000000
    outer loop
      vertex -20.000 20.000 10.000
      vertex -20.000 -20.000 10.000
      vertex -20.000 -20.000 12.000
    endloop
  endfacet
  facet normal -1.000000 0.000000 0.000000
    outer loop
      vertex -20.000 20.000 10.000
      vertex -20.000 -20.000 12.000
      vertex -20.000 20.000 12.000
    endloop
  endfacet
  facet normal 1.000000 0.000000 0.000000
    outer loop
      vertex 20.000 -20.000 10.000
      vertex 20.000 20.000 10.000
      vertex 20.000 20.000 12.000
    endloop
  endfacet
  facet normal 1.000000 0.000000 0.000000
    outer loop
      vertex 20.000 -20.000 10.000
      vertex 20.000 20.000 12.000
      vertex 20.000 -20.000 12.000
    endloop
  endfacet
  facet normal 0.000000 0.000000 -1.000000
    outer loop
      vertex -18.000 -17.500 8.000
      vertex -17.500 17.500 8.000
      vertex -17.500 -17.500 8.000
    endloop
  endfacet
  facet normal 0.000000 0.000000 -1.000000
    outer loop
      vertex -18.000 -17.500 8.000
      vertex -18.000 17.500 8.000
      vertex -17.500 17.500 8.000
    endloop
  endfacet
  facet normal 0.000000 0.000000 1.000000
    outer loop
      vertex -18.000 -17.500 10.000
      vertex -17.500 -17.500 10.000
      vertex -17.500 17.500 10.000
    endloop
  endfacet
  facet normal 0.000000 0.000000 1.000000
    outer loop
      vertex -18.000 -17.500 10.000
      vertex -17.500 17.500 10.000
      vertex -18.000 17.500 10.000
    endloop
  endfacet
  facet normal 0.000000 -1.000000 0.000000
    outer loop
      vertex -18.000 -17.500 8.000
      vertex -17.500 -17.500 8.000
      vertex -17.500 -17.500 10.000
    endloop
  endfacet
  facet normal 0.000000 -1.000000 0.000000
    outer loop
      vertex -18.000 -17.500 8.000
      vertex -17.500 -17.500 10.000
      vertex -18.000 -17.500 10.000
    endloop
  endfacet
  facet normal 0.000000 1.000000 0.000000
    outer loop
      vertex -17.500 17.500 8.000
      vertex -18.000 17.500 8.000
      vertex -18.000 17.500 10.000
    endloop
  endfacet
  facet normal 0.000000 1.000000 0.000000
    outer loop
      vertex -17.500 17.500 8.000
      vertex -18.000 17.500 10.000
      vertex -17.500 17.500 10.000
    endloop
  endfacet
  facet normal -1.000000 0.000000 0.000000
    outer loop
      vertex -18.000 17.500 8.000
      vertex -18.000 -17.500 8.000
      vertex -18.000 -17.500 10.000
    endloop
  endfacet
  facet normal -1.000000 0.000000 0.000000
    outer loop
      vertex -18.000 17.500 8.000
      vertex -18.000 -17.500 10.000
      vertex -18.000 17.500 10.000
    endloop
  endfacet
  facet normal 1.000000 0.000000 0.000000
    outer loop
      vertex -17.500 -17.500 8.000
      vertex -17.500 17.500 8.000
      vertex -17.500 17.500 10.000
    endloop
  endfacet
  facet normal 1.000000 0.000000 0.000000
    outer loop
      vertex -17.500 -17.500 8.000
      vertex -17.500 17.500 10.000
      vertex -17.500 -17.500 10.000
    endloop
  endfacet
  facet normal 0.000000 0.000000 -1.000000
    outer loop
      vertex 17.500 -17.500 8.000
      vertex 18.000 17.500 8.000
      vertex 18.000 -17.500 8.000
    endloop
  endfacet
  facet normal 0.000000 0.000000 -1.000000
    outer loop
      vertex 17.500 -17.500 8.000
      vertex 17.500 17.500 8.000
      vertex 18.000 17.500 8.000
    endloop
  endfacet
  facet normal 0.000000 0.000000 1.000000
    outer loop
      vertex 17.500 -17.500 10.000
      vertex 18.000 -17.500 10.000
      vertex 18.000 17.500 10.000
    endloop
  endfacet
  facet normal 0.000000 0.000000 1.000000
    outer loop
      vertex 17.500 -17.500 10.000
      vertex 18.000 17.500 10.000
      vertex 17.500 17.500 10.000
    endloop
  endfacet
  facet normal 0.000000 -1.000000 0.000000
    outer loop
      vertex 17.500 -17.500 8.000
      vertex 18.000 -17.500 8.000
      vertex 18.000 -17.500 10.000
    endloop
  endfacet
  facet normal 0.000000 -1.000000 0.000000
    outer loop
      vertex 17.500 -17.500 8.000
      vertex 18.000 -17.500 10.000
      vertex 17.500 -17.500 10.000
    endloop
  endfacet
  facet normal 0.000000 1.000000 0.000000
    outer loop
      vertex 18.000 17.500 8.000
      vertex 17.500 17.500 8.000
      vertex 17.500 17.500 10.000
    endloop
  endfacet
  facet normal 0.000000 1.000000 0.000000
    outer loop
      vertex 18.000 17.500 8.000
      vertex 17.500 17.500 10.000
      vertex 18.000 17.500 10.000
    endloop
  endfacet
  facet normal -1.000000 0.000000 0.000000
    outer loop
      vertex 17.500 17.500 8.000
      vertex 17.500 -17.500 8.000
      vertex 17.500 -17.500 10.000
    endloop
  endfacet
  facet normal -1.000000 0.000000 0.000000
    outer loop
      vertex 17.500 17.500 8.000
      vertex 17.500 -17.500 10.000
      vertex 17.500 17.500 10.000
    endloop
  endfacet
  facet normal 1.000000 0.000000 0.000000
    outer loop
      vertex 18.000 -17.500 8.000
      vertex 18.000 17.500 8.000
      vertex 18.000 17.500 10.000
    endloop
  endfacet
  facet normal 1.000000 0.000000 0.000000
    outer loop
      vertex 18.000 -17.500 8.000
      vertex 18.000 17.500 10.000
      vertex 18.000 -17.500 10.000
    endloop
  endfacet
  facet normal 0.000000 0.000000 -1.000000
    outer loop
      vertex -17.500 -18.000 8.000
      vertex 17.500 -17.500 8.000
      vertex 17.500 -18.000 8.000
    endloop
  endfacet
  facet normal 0.000000 0.000000 -1.000000
    outer loop
      vertex -17.500 -18.000 8.000
      vertex -17.500 -17.500 8.000
      vertex 17.500 -17.500 8.000
    endloop
  endfacet
  facet normal 0.000000 0.000000 1.000000
    outer loop
      vertex -17.500 -18.000 10.000
      vertex 17.500 -18.000 10.000
      vertex 17.500 -17.500 10.000
    endloop
  endfacet
  facet normal 0.000000 0.000000 1.000000
    outer loop
      vertex -17.500 -18.000 10.000
      vertex 17.500 -17.500 10.000
      vertex -17.500 -17.500 10.000
    endloop
  endfacet
  facet normal 0.000000 -1.000000 0.000000
    outer loop
      vertex -17.500 -18.000 8.000
      vertex 17.500 -18.000 8.000
      vertex 17.500 -18.000 10.000
    endloop
  endfacet
  facet normal 0.000000 -1.000000 0.000000
    outer loop
      vertex -17.500 -18.000 8.000
      vertex 17.500 -18.000 10.000
      vertex -17.500 -18.000 10.000
    endloop
  endfacet
  facet normal 0.000000 1.000000 0.000000
    outer loop
      vertex 17.500 -17.500 8.000
      vertex -17.500 -17.500 8.000
      vertex -17.500 -17.500 10.000
    endloop
  endfacet
  facet normal 0.000000 1.000000 0.000000
    outer loop
      vertex 17.500 -17.500 8.000
      vertex -17.500 -17.500 10.000
      vertex 17.500 -17.500 10.000
    endloop
  endfacet
  facet normal -1.000000 0.000000 0.000000
    outer loop
      vertex -17.500 -17.500 8.000
      vertex -17.500 -18.000 8.000
      vertex -17.500 -18.000 10.000
    endloop
  endfacet
  facet normal -1.000000 0.000000 0.000000
    outer loop
      vertex -17.500 -17.500 8.000
      vertex -17.500 -18.000 10.000
      vertex -17.500 -17.500 10.000
    endloop
  endfacet
  facet normal 1.000000 0.000000 0.000000
    outer loop
      vertex 17.500 -18.000 8.000
      vertex 17.500 -17.500 8.000
      vertex 17.500 -17.500 10.000
    endloop
  endfacet
  facet normal 1.000000 0.000000 0.000000
    outer loop
      vertex 17.500 -18.000 8.000
      vertex 17.500 -17.500 10.000
      vertex 17.500 -18.000 10.000
    endloop
  endfacet
  facet normal 0.000000 0.000000 -1.000000
    outer loop
      vertex -17.500 17.500 8.000
      vertex 17.500 18.000 8.000
      vertex 17.500 17.500 8.000
    endloop
  endfacet
  facet normal 0.000000 0.000000 -1.000000
    outer loop
      vertex -17.500 17.500 8.000
      vertex -17.500 18.000 8.000
      vertex 17.500 18.000 8.000
    endloop
  endfacet
  facet normal 0.000000 0.000000 1.000000
    outer loop
      vertex -17.500 17.500 10.000
      vertex 17.500 17.500 10.000
      vertex 17.500 18.000 10.000
    endloop
  endfacet
  facet normal 0.000000 0.000000 1.000000
    outer loop
      vertex -17.500 17.500 10.000
      vertex 17.500 18.000 10.000
      vertex -17.500 18.000 10.000
    endloop
  endfacet
  facet normal 0.000000 -1.000000 0.000000
    outer loop
      vertex -17.500 17.500 8.000
      vertex 17.500 17.500 8.000
      vertex 17.500 17.500 10.000
    endloop
  endfacet
  facet normal 0.000000 -1.000000 0.000000
    outer loop
      vertex -17.500 17.500 8.000
      vertex 17.500 17.500 10.000
      vertex -17.500 17.500 10.000
    endloop
  endfacet
  facet normal 0.000000 1.000000 0.000000
    outer loop
      vertex 17.500 18.000 8.000
      vertex -17.500 18.000 8.000
      vertex -17.500 18.000 10.000
    endloop
  endfacet
  facet normal 0.000000 1.000000 0.000000
    outer loop
      vertex 17.500 18.000 8.000
      vertex -17.500 18.000 10.000
      vertex 17.500 18.000 10.000
    endloop
  endfacet
  facet normal -1.000000 0.000000 0.000000
    outer loop
      vertex -17.500 18.000 8.000
      vertex -17.500 17.500 8.000
      vertex -17.500 17.500 10.000
    endloop
  endfacet
  facet normal -1.000000 0.000000 0.000000
    outer loop
      vertex -17.500 18.000 8.000
      vertex -17.500 17.500 10.000
      vertex -17.500 18.000 10.000
    endloop
  endfacet
  facet normal 1.000000 0.000000 0.000000
    outer loop
      vertex 17.500 17.500 8.000
      vertex 17.500 18.000 8.000
      vertex 17.500 18.000 10.000
    endloop
  endfacet
  facet normal 1.000000 0.000000 0.000000
    outer loop
      vertex 17.500 17.500 8.000
      vertex 17.500 18.000 10.000
      vertex 17.500 17.500 10.000
    endloop
  endfacet
endsolid wearable_casing_top
