solid wearable_casing_bottom
  facet normal 0.000000 0.000000 -1.000000
    outer loop
      vertex -20.000 -20.000 0.000
      vertex -4.000 20.000 0.000
      vertex -4.000 -20.000 0.000
    endloop
  endfacet
  facet normal 0.000000 0.000000 -1.000000
    outer loop
      vertex -20.000 -20.000 0.000
      vertex -20.000 20.000 0.000
      vertex -4.000 20.000 0.000
    endloop
  endfacet
  facet normal 0.000000 0.000000 1.000000
    outer loop
      vertex -20.000 -20.000 1.500
      vertex -4.000 -20.000 1.500
      vertex -4.000 20.000 1.500
    endloop
  endfacet
  facet normal 0.000000 0.000000 1.000000
    outer loop
      vertex -20.000 -20.000 1.500
      vertex -4.000 20.000 1.500
      vertex -20.000 20.000 1.500
    endloop
  endfacet
  facet normal 0.000000 -1.000000 0.000000
    outer loop
      vertex -20.000 -20.000 0.000
      vertex -4.000 -20.000 0.000
      vertex -4.000 -20.000 1.500
    endloop
  endfacet
  facet normal 0.000000 -1.000000 0.000000
    outer loop
      vertex -20.000 -20.000 0.000
      vertex -4.000 -20.000 1.500
      vertex -20.000 -20.000 1.500
    endloop
  endfacet
  facet normal 0.000000 1.000000 0.000000
    outer loop
      vertex -4.000 20.000 0.000
      vertex -20.000 20.000 0.000
      vertex -20.000 20.000 1.500
    endloop
  endfacet
  facet normal 0.000000 1.000000 0.000000
    outer loop
      vertex -4.000 20.000 0.000
      vertex -20.000 20.000 1.500
      vertex -4.000 20.000 1.500
    endloop
  endfacet
  facet normal -1.000000 0.000000 0.000000
    outer loop
      vertex -20.000 20.000 0.000
      vertex -20.000 -20.000 0.000
      vertex -20.000 -20.000 1.500
    endloop
  endfacet
  facet normal -1.000000 0.000000 0.000000
    outer loop
      vertex -20.000 20.000 0.000
      vertex -20.000 -20.000 1.500
      vertex -20.000 20.000 1.500
    endloop
  endfacet
  facet normal 1.000000 0.000000 0.000000
    outer loop
      vertex -4.000 -20.000 0.000
      vertex -4.000 20.000 0.000
      vertex -4.000 20.000 1.500
    endloop
  endfacet
  facet normal 1.000000 0.000000 0.000000
    outer loop
      vertex -4.000 -20.000 0.000
      vertex -4.000 20.000 1.500
      vertex -4.000 -20.000 1.500
    endloop
  endfacet
  facet normal 0.000000 0.000000 -1.000000
    outer loop
      vertex 4.000 -20.000 0.000
      vertex 20.000 20.000 0.000
      vertex 20.000 -20.000 0.000
    endloop
  endfacet
  facet normal 0.000000 0.000000 -1.000000
    outer loop
      vertex 4.000 -20.000 0.000
      vertex 4.000 20.000 0.000
      vertex 20.000 20.000 0.000
    endloop
  endfacet
  facet normal 0.000000 0.000000 1.000000
    outer loop
      vertex 4.000 -20.000 1.500
      vertex 20.000 -20.000 1.500
      vertex 20.000 20.000 1.500
    endloop
  endfacet
  facet normal 0.000000 0.000000 1.000000
    outer loop
      vertex 4.000 -20.000 1.500
      vertex 20.000 20.000 1.500
      vertex 4.000 20.000 1.500
    endloop
  endfacet
  facet normal 0.000000 -1.000000 0.000000
    outer loop
      vertex 4.000 -20.000 0.000
      vertex 20.000 -20.000 0.000
      vertex 20.000 -20.000 1.500
    endloop
  endfacet
  facet normal 0.000000 -1.000000 0.000000
    outer loop
      vertex 4.000 -20.000 0.000
      vertex 20.000 -20.000 1.500
      vertex 4.000 -20.000 1.500
    endloop
  endfacet
  facet normal 0.000000 1.000000 0.000000
    outer loop
      vertex 20.000 20.000 0.000
      vertex 4.000 20.000 0.000
      vertex 4.000 20.000 1.500
    endloop
  endfacet
  facet normal 0.000000 1.000000 0.000000
    outer loop
      vertex 20.000 20.000 0.000
      vertex 4.000 20.000 1.500
      vertex 20.000 20.000 1.500
    endloop
  endfacet
  facet normal -1.000000 0.000000 0.000000
    outer loop
      vertex 4.000 20.000 0.000
      vertex 4.000 -20.000 0.000
      vertex 4.000 -20.000 1.500
    endloop
  endfacet
  facet normal -1.000000 0.000000 0.000000
    outer loop
      vertex 4.000 20.000 0.000
      vertex 4.000 -20.000 1.500
      vertex 4.000 20.000 1.500
    endloop
  endfacet
  facet normal 1.000000 0.000000 0.000000
    outer loop
      vertex 20.000 -20.000 0.000
      vertex 20.000 20.000 0.000
      vertex 20.000 20.000 1.500
    endloop
  endfacet
  facet normal 1.000000 0.000000 0.000000
    outer loop
      vertex 20.000 -20.000 0.000
      vertex 20.000 20.000 1.500
      vertex 20.000 -20.000 1.500
    endloop
  endfacet
  facet normal 0.000000 0.000000 -1.000000
    outer loop
      vertex -4.000 -20.000 0.000
      vertex 4.000 -4.000 0.000
      vertex 4.000 -20.000 0.000
    endloop
  endfacet
  facet normal 0.000000 0.000000 -1.000000
    outer loop
      vertex -4.000 -20.000 0.000
      vertex -4.000 -4.000 0.000
      vertex 4.000 -4.000 0.000
    endloop
  endfacet
  facet normal 0.000000 0.000000 1.000000
    outer loop
      vertex -4.000 -20.000 1.500
      vertex 4.000 -20.000 1.500
      vertex 4.000 -4.000 1.500
    endloop
  endfacet
  facet normal 0.000000 0.000000 1.000000
    outer loop
      vertex -4.000 -20.000 1.500
      vertex 4.000 -4.000 1.500
      vertex -4.000 -4.000 1.500
    endloop
  endfacet
  facet normal 0.000000 -1.000000 0.000000
    outer loop
      vertex -4.000 -20.000 0.000
      vertex 4.000 -20.000 0.000
      vertex 4.000 -20.000 1.500
    endloop
  endfacet
  facet normal 0.000000 -1.000000 0.000000
    outer loop
      vertex -4.000 -20.000 0.000
      vertex 4.000 -20.000 1.500
      vertex -4.000 -20.000 1.500
    endloop
  endfacet
  facet normal 0.000000 1.000000 0.000000
    outer loop
      vertex 4.000 -4.000 0.000
      vertex -4.000 -4.000 0.000
      vertex -4.000 -4.000 1.500
    endloop
  endfacet
  facet normal 0.000000 1.000000 0.000000
    outer loop
      vertex 4.000 -4.000 0.000
      vertex -4.000 -4.000 1.500
      vertex 4.000 -4.000 1.500
    endloop
  endfacet
  facet normal -1.000000 0.000000 0.000000
    outer loop
      vertex -4.000 -4.000 0.000
      vertex -4.000 -20.000 0.000
      vertex -4.000 -20.000 1.500
    endloop
  endfacet
  facet normal -1.000000 0.000000 0.000000
    outer loop
      vertex -4.000 -4.000 0.000
      vertex -4.000 -20.000 1.500
      vertex -4.000 -4.000 1.500
    endloop
  endfacet
  facet normal 1.000000 0.000000 0.000000
    outer loop
      vertex 4.000 -20.000 0.000
      vertex 4.000 -4.000 0.000
      vertex 4.000 -4.000 1.500
    endloop
  endfacet
  facet normal 1.000000 0.000000 0.000000
    outer loop
      vertex 4.000 -20.000 0.000
      vertex 4.000 -4.000 1.500
      vertex 4.000 -20.000 1.500
    endloop
  endfacet
  facet normal 0.000000 0.000000 -1.000000
    outer loop
      vertex -4.000 4.000 0.000
      vertex 4.000 20.000 0.000
      vertex 4.000 4.000 0.000
    endloop
  endfacet
  facet normal 0.000000 0.000000 -1.000000
    outer loop
      vertex -4.000 4.000 0.000
      vertex -4.000 20.000 0.000
      vertex 4.000 20.000 0.000
    endloop
  endfacet
  facet normal 0.000000 0.000000 1.000000
    outer loop
      vertex -4.000 4.000 1.500
      vertex 4.000 4.000 1.500
      vertex 4.000 20.000 1.500
    endloop
  endfacet
  facet normal 0.000000 0.000000 1.000000
    outer loop
      vertex -4.000 4.000 1.500
      vertex 4.000 20.000 1.500
      vertex -4.000 20.000 1.500
    endloop
  endfacet
  facet normal 0.000000 -1.000000 0.000000
    outer loop
      vertex -4.000 4.000 0.000
      vertex 4.000 4.000 0.000
      vertex 4.000 4.000 1.500
    endloop
  endfacet
  facet normal 0.000000 -1.000000 0.000000
    outer loop
      vertex -4.000 4.000 0.000
      vertex 4.000 4.000 1.500
      vertex -4.000 4.000 1.500
    endloop
  endfacet
  facet normal 0.000000 1.000000 0.000000
    outer loop
      vertex 4.000 20.000 0.000
      vertex -4.000 20.000 0.000
      vertex -4.000 20.000 1.500
    endloop
  endfacet
  facet normal 0.000000 1.000000 0.000000
    outer loop
      vertex 4.000 20.000 0.000
      vertex -4.000 20.000 1.500
      vertex 4.000 20.000 1.500
    endloop
  endfacet
  facet normal -1.000000 0.000000 0.000000
    outer loop
      vertex -4.000 20.000 0.000
      vertex -4.000 4.000 0.000
      vertex -4.000 4.000 1.500
    endloop
  endfacet
  facet normal -1.000000 0.000000 0.000000
    outer loop
      vertex -4.000 20.000 0.000
      vertex -4.000 4.000 1.500
      vertex -4.000 20.000 1.500
    endloop
  endfacet
  facet normal 1.000000 0.000000 0.000000
    outer loop
      vertex 4.000 4.000 0.000
      vertex 4.000 20.000 0.000
      vertex 4.000 20.000 1.500
    endloop
  endfacet
  facet normal 1.000000 0.000000 0.000000
    outer loop
      vertex 4.000 4.000 0.000
      vertex 4.000 20.000 1.500
      vertex 4.000 4.000 1.500
    endloop
  endfacet
  facet normal 0.000000 0.000000 -1.000000
    outer loop
      vertex -20.000 -20.000 1.500
      vertex -18.000 20.000 1.500
      vertex -18.000 -20.000 1.500
    endloop
  endfacet
  facet normal 0.000000 0.000000 -1.000000
    outer loop
      vertex -20.000 -20.000 1.500
      vertex -20.000 20.000 1.500
      vertex -18.000 20.000 1.500
    endloop
  endfacet
  facet normal 0.000000 0.000000 1.000000
    outer loop
      vertex -20.000 -20.000 10.000
      vertex -18.000 -20.000 10.000
      vertex -18.000 20.000 10.000
    endloop
  endfacet
  facet normal 0.000000 0.000000 1.000000
    outer loop
      vertex -20.000 -20.000 10.000
      vertex -18.000 20.000 10.000
      vertex -20.000 20.000 10.000
    endloop
  endfacet
  facet normal 0.000000 -1.000000 0.000000
    outer loop
      vertex -20.000 -20.000 1.500
      vertex -18.000 -20.000 1.500
      vertex -18.000 -20.000 10.000
    endloop
  endfacet
  facet normal 0.000000 -1.000000 0.000000
    outer loop
      vertex -20.000 -20.000 1.500
      vertex -18.000 -20.000 10.000
      vertex -20.000 -20.000 10.000
    endloop
  endfacet
  facet normal 0.000000 1.000000 0.000000
    outer loop
      vertex -18.000 20.000 1.500
      vertex -20.000 20.000 1.500
      vertex -20.000 20.000 10.000
    endloop
  endfacet
  facet normal 0.000000 1.000000 0.000000
    outer loop
      vertex -18.000 20.000 1.500
      vertex -20.000 20.000 10.000
      vertex -18.000 20.000 10.000
    endloop
  endfacet
  facet normal -1.000000 0.000000 0.000000
    outer loop
      vertex -20.000 20.000 1.500
      vertex -20.000 -20.000 1.500
      vertex -20.000 -20.000 10.000
    endloop
  endfacet
  facet normal -1.000000 0.000000 0.000000
    outer loop
      vertex -20.000 20.000 1.500
      vertex -20.000 -20.000 10.000
      vertex -20.000 20.000 10.000
    endloop
  endfacet
  facet normal 1.000000 0.000000 0.000000
    outer loop
      vertex -18.000 -20.000 1.500
      vertex -18.000 20.000 1.500
      vertex -18.000 20.000 10.000
    endloop
  endfacet
  facet normal 1.000000 0.000000 0.000000
    outer loop
      vertex -18.000 -20.000 1.500
      vertex -18.000 20.000 10.000
      vertex -18.000 -20.000 10.000
    endloop
  endfacet
  facet normal 0.000000 0.000000 -1.000000
    outer loop
      vertex 18.000 -20.000 1.500
      vertex 20.000 20.000 1.500
      vertex 20.000 -20.000 1.500
    endloop
  endfacet
  facet normal 0.000000 0.000000 -1.000000
    outer loop
      vertex 18.000 -20.000 1.500
      vertex 18.000 20.000 1.500
      vertex 20.000 20.000 1.500
    endloop
  endfacet
  facet normal 0.000000 0.000000 1.000000
    outer loop
      vertex 18.000 -20.000 10.000
      vertex 20.000 -20.000 10.000
      vertex 20.000 20.000 10.000
    endloop
  endfacet
  facet normal 0.000000 0.000000 1.000000
    outer loop
      vertex 18.000 -20.000 10.000
      vertex 20.000 20.000 10.000
      vertex 18.000 20.000 10.000
    endloop
  endfacet
  facet normal 0.000000 -1.000000 0.000000
    outer loop
      vertex 18.000 -20.000 1.500
      vertex 20.000 -20.000 1.500
      vertex 20.000 -20.000 10.000
    endloop
  endfacet
  facet normal 0.000000 -1.000000 0.000000
    outer loop
      vertex 18.000 -20.000 1.500
      vertex 20.000 -20.000 10.000
      vertex 18.000 -20.000 10.000
    endloop
  endfacet
  facet normal 0.000000 1.000000 0.000000
    outer loop
      vertex 20.000 20.000 1.500
      vertex 18.000 20.000 1.500
      vertex 18.000 20.000 10.000
    endloop
  endfacet
  facet normal 0.000000 1.000000 0.000000
    outer loop
      vertex 20.000 20.000 1.500
      vertex 18.000 20.000 10.000
      vertex 20.000 20.000 10.000
    endloop
  endfacet
  facet normal -1.000000 0.000000 0.000000
    outer loop
      vertex 18.000 20.000 1.500
      vertex 18.000 -20.000 1.500
      vertex 18.000 -20.000 10.000
    endloop
  endfacet
  facet normal -1.000000 0.000000 0.000000
    outer loop
      vertex 18.000 20.000 1.500
      vertex 18.000 -20.000 10.000
      vertex 18.000 20.000 10.000
    endloop
  endfacet
  facet normal 1.000000 0.000000 0.000000
    outer loop
      vertex 20.000 -20.000 1.500
      vertex 20.000 20.000 1.500
      vertex 20.000 20.000 10.000
    endloop
  endfacet
  facet normal 1.000000 0.000000 0.000000
    outer loop
      vertex 20.000 -20.000 1.500
      vertex 20.000 20.000 10.000
      vertex 20.000 -20.000 10.000
    endloop
  endfacet
  facet normal 0.000000 0.000000 -1.000000
    outer loop
      vertex -18.000 18.000 1.500
      vertex 18.000 20.000 1.500
      vertex 18.000 18.000 1.500
    endloop
  endfacet
  facet normal 0.000000 0.000000 -1.000000
    outer loop
      vertex -18.000 18.000 1.500
      vertex -18.000 20.000 1.500
      vertex 18.000 20.000 1.500
    endloop
  endfacet
  facet normal 0.000000 0.000000 1.000000
    outer loop
      vertex -18.000 18.000 10.000
      vertex 18.000 18.000 10.000
      vertex 18.000 20.000 10.000
    endloop
  endfacet
  facet normal 0.000000 0.000000 1.000000
    outer loop
      vertex -18.000 18.000 10.000
      vertex 18.000 20.000 10.000
      vertex -18.000 20.000 10.000
    endloop
  endfacet
  facet normal 0.000000 -1.000000 0.000000
    outer loop
      vertex -18.000 18.000 1.500
      vertex 18.000 18.000 1.500
      vertex 18.000 18.000 10.000
    endloop
  endfacet
  facet normal 0.000000 -1.000000 0.000000
    outer loop
      vertex -18.000 18.000 1.500
      vertex 18.000 18.000 10.000
      vertex -18.000 18.000 10.000
    endloop
  endfacet
  facet normal 0.000000 1.000000 0.000000
    outer loop
      vertex 18.000 20.000 1.500
      vertex -18.000 20.000 1.500
      vertex -18.000 20.000 10.000
    endloop
  endfacet
  facet normal 0.000000 1.000000 0.000000
    outer loop
      vertex 18.000 20.000 1.500
      vertex -18.000 20.000 10.000
      vertex 18.000 20.000 10.000
    endloop
  endfacet
  facet normal -1.000000 0.000000 0.000000
    outer loop
      vertex -18.000 20.000 1.500
      vertex -18.000 18.000 1.500
      vertex -18.000 18.000 10.000
    endloop
  endfacet
  facet normal -1.000000 0.000000 0.000000
    outer loop
      vertex -18.000 20.000 1.500
      vertex -18.000 18.000 10.000
      vertex -18.000 20.000 10.000
    endloop
  endfacet
  facet normal 1.000000 0.000000 0.000000
    outer loop
      vertex 18.000 18.000 1.500
      vertex 18.000 20.000 1.500
      vertex 18.000 20.000 10.000
    endloop
  endfacet
  facet normal 1.000000 0.000000 0.000000
    outer loop
      vertex 18.000 18.000 1.500
      vertex 18.000 20.000 10.000
      vertex 18.000 18.000 10.000
    endloop
  endfacet
  facet normal 0.000000 0.000000 -1.000000
    outer loop
      vertex -18.000 -20.000 1.500
      vertex -4.500 -18.000 1.500
      vertex -4.500 -20.000 1.500
    endloop
  endfacet
  facet normal 0.000000 0.000000 -1.000000
    outer loop
      vertex -18.000 -20.000 1.500
      vertex -18.000 -18.000 1.500
      vertex -4.500 -18.000 1.500
    endloop
  endfacet
  facet normal 0.000000 0.000000 1.000000
    outer loop
      vertex -18.000 -20.000 10.000
      vertex -4.500 -20.000 10.000
      vertex -4.500 -18.000 10.000
    endloop
  endfacet
  facet normal 0.000000 0.000000 1.000000
    outer loop
      vertex -18.000 -20.000 10.000
      vertex -4.500 -18.000 10.000
      vertex -18.000 -18.000 10.000
    endloop
  endfacet
  facet normal 0.000000 -1.000000 0.000000
    outer loop
      vertex -18.000 -20.000 1.500
      vertex -4.500 -20.000 1.500
      vertex -4.500 -20.000 10.000
    endloop
  endfacet
  facet normal 0.000000 -1.000000 0.000000
    outer loop
      vertex -18.000 -20.000 1.500
      vertex -4.500 -20.000 10.000
      vertex -18.000 -20.000 10.000
    endloop
  endfacet
  facet normal 0.000000 1.000000 0.000000
    outer loop
      vertex -4.500 -18.000 1.500
      vertex -18.000 -18.000 1.500
      vertex -18.000 -18.000 10.000
    endloop
  endfacet
  facet normal 0.000000 1.000000 0.000000
    outer loop
      vertex -4.500 -18.000 1.500
      vertex -18.000 -18.000 10.000
      vertex -4.500 -18.000 10.000
    endloop
  endfacet
  facet normal -1.000000 0.000000 0.000000
    outer loop
      vertex -18.000 -18.000 1.500
      vertex -18.000 -20.000 1.500
      vertex -18.000 -20.000 10.000
    endloop
  endfacet
  facet normal -1.000000 0.000000 0.000000
    outer loop
      vertex -18.000 -18.000 1.500
      vertex -18.000 -20.000 10.000
      vertex -18.000 -18.000 10.000
    endloop
  endfacet
  facet normal 1.000000 0.000000 0.000000
    outer loop
      vertex -4.500 -20.000 1.500
      vertex -4.500 -18.000 1.500
      vertex -4.500 -18.000 10.000
    endloop
  endfacet
  facet normal 1.000000 0.000000 0.000000
    outer loop
      vertex -4.500 -20.000 1.500
      vertex -4.500 -18.000 10.000
      vertex -4.500 -20.000 10.000
    endloop
  endfacet
  facet normal 0.000000 0.000000 -1.000000
    outer loop
      vertex 4.500 -20.000 1.500
      vertex 18.000 -18.000 1.500
      vertex 18.000 -20.000 1.500
    endloop
  endfacet
  facet normal 0.000000 0.000000 -1.000000
    outer loop
      vertex 4.500 -20.000 1.500
      vertex 4.500 -18.000 1.500
      vertex 18.000 -18.000 1.500
    endloop
  endfacet
  facet normal 0.000000 0.000000 1.000000
    outer loop
      vertex 4.500 -20.000 10.000
      vertex 18.000 -20.000 10.000
      vertex 18.000 -18.000 10.000
    endloop
  endfacet
  facet normal 0.000000 0.000000 1.000000
    outer loop
      vertex 4.500 -20.000 10.000
      vertex 18.000 -18.000 10.000
      vertex 4.500 -18.000 10.000
    endloop
  endfacet
  facet normal 0.000000 -1.000000 0.000000
    outer loop
      vertex 4.500 -20.000 1.500
      vertex 18.000 -20.000 1.500
      vertex 18.000 -20.000 10.000
    endloop
  endfacet
  facet normal 0.000000 -1.000000 0.000000
    outer loop
      vertex 4.500 -20.000 1.500
      vertex 18.000 -20.000 10.000
      vertex 4.500 -20.000 10.000
    endloop
  endfacet
  facet normal 0.000000 1.000000 0.000000
    outer loop
      vertex 18.000 -18.000 1.500
      vertex 4.500 -18.000 1.500
      vertex 4.500 -18.000 10.000
    endloop
  endfacet
  facet normal 0.000000 1.000000 0.000000
    outer loop
      vertex 18.000 -18.000 1.500
      vertex 4.500 -18.000 10.000
      vertex 18.000 -18.000 10.000
    endloop
  endfacet
  facet normal -1.000000 0.000000 0.000000
    outer loop
      vertex 4.500 -18.000 1.500
      vertex 4.500 -20.000 1.500
      vertex 4.500 -20.000 10.000
    endloop
  endfacet
  facet normal -1.000000 0.000000 0.000000
    outer loop
      vertex 4.500 -18.000 1.500
      vertex 4.500 -20.000 10.000
      vertex 4.500 -18.000 10.000
    endloop
  endfacet
  facet normal 1.000000 0.000000 0.000000
    outer loop
      vertex 18.000 -20.000 1.500
      vertex 18.000 -18.000 1.500
      vertex 18.000 -18.000 10.000
    endloop
  endfacet
  facet normal 1.000000 0.000000 0.000000
    outer loop
      vertex 18.000 -20.000 1.500
      vertex 18.000 -18.000 10.000
      vertex 18.000 -20.000 10.000
    endloop
  endfacet
  facet normal 0.000000 0.000000 -1.000000
    outer loop
      vertex -4.500 -20.000 5.000
      vertex 4.500 -18.000 5.000
      vertex 4.500 -20.000 5.000
    endloop
  endfacet
  facet normal 0.000000 0.000000 -1.000000
    outer loop
      vertex -4.500 -20.000 5.000
      vertex -4.500 -18.000 5.000
      vertex 4.500 -18.000 5.000
    endloop
  endfacet
  facet normal 0.000000 0.000000 1.000000
    outer loop
      vertex -4.500 -20.000 10.000
      vertex 4.500 -20.000 10.000
      vertex 4.500 -18.000 10.000
    endloop
  endfacet
  facet normal 0.000000 0.000000 1.000000
    outer loop
      vertex -4.500 -20.000 10.000
      vertex 4.500 -18.000 10.000
      vertex -4.500 -18.000 10.000
    endloop
  endfacet
  facet normal 0.000000 -1.000000 0.000000
    outer loop
      vertex -4.500 -20.000 5.000
      vertex 4.500 -20.000 5.000
      vertex 4.500 -20.000 10.000
    endloop
  endfacet
  facet normal 0.000000 -1.000000 0.000000
    outer loop
      vertex -4.500 -20.000 5.000
      vertex 4.500 -20.000 10.000
      vertex -4.500 -20.000 10.000
    endloop
  endfacet
  facet normal 0.000000 1.000000 0.000000
    outer loop
      vertex 4.500 -18.000 5.000
      vertex -4.500 -18.000 5.000
      vertex -4.500 -18.000 10.000
    endloop
  endfacet
  facet normal 0.000000 1.000000 0.000000
    outer loop
      vertex 4.500 -18.000 5.000
      vertex -4.500 -18.000 10.000
      vertex 4.500 -18.000 10.000
    endloop
  endfacet
  facet normal -1.000000 0.000000 0.000000
    outer loop
      vertex -4.500 -18.000 5.000
      vertex -4.500 -20.000 5.000
      vertex -4.500 -20.000 10.000
    endloop
  endfacet
  facet normal -1.000000 0.000000 0.000000
    outer loop
      vertex -4.500 -18.000 5.000
      vertex -4.500 -20.000 10.000
      vertex -4.500 -18.000 10.000
    endloop
  endfacet
  facet normal 1.000000 0.000000 0.000000
    outer loop
      vertex 4.500 -20.000 5.000
      vertex 4.500 -18.000 5.000
      vertex 4.500 -18.000 10.000
    endloop
  endfacet
  facet normal 1.000000 0.000000 0.000000
    outer loop
      vertex 4.500 -20.000 5.000
      vertex 4.500 -18.000 10.000
      vertex 4.500 -20.000 10.000
    endloop
  endfacet
  facet normal 0.000000 0.000000 -1.000000
    outer loop
      vertex -24.000 -10.000 1.500
      vertex -22.000 10.000 1.500
      vertex -22.000 -10.000 1.500
    endloop
  endfacet
  facet normal 0.000000 0.000000 -1.000000
    outer loop
      vertex -24.000 -10.000 1.500
      vertex -24.000 10.000 1.500
      vertex -22.000 10.000 1.500
    endloop
  endfacet
  facet normal 0.000000 0.000000 1.000000
    outer loop
      vertex -24.000 -10.000 4.500
      vertex -22.000 -10.000 4.500
      vertex -22.000 10.000 4.500
    endloop
  endfacet
  facet normal 0.000000 0.000000 1.000000
    outer loop
      vertex -24.000 -10.000 4.500
      vertex -22.000 10.000 4.500
      vertex -24.000 10.000 4.500
    endloop
  endfacet
  facet normal 0.000000 -1.000000 0.000000
    outer loop
      vertex -24.000 -10.000 1.500
      vertex -22.000 -10.000 1.500
      vertex -22.000 -10.000 4.500
    endloop
  endfacet
  facet normal 0.000000 -1.000000 0.000000
    outer loop
      vertex -24.000 -10.000 1.500
      vertex -22.000 -10.000 4.500
      vertex -24.000 -10.000 4.500
    endloop
  endfacet
  facet normal 0.000000 1.000000 0.000000
    outer loop
      vertex -22.000 10.000 1.500
      vertex -24.000 10.000 1.500
      vertex -24.000 10.000 4.500
    endloop
  endfacet
  facet normal 0.000000 1.000000 0.000000
    outer loop
      vertex -22.000 10.000 1.500
      vertex -24.000 10.000 4.500
      vertex -22.000 10.000 4.500
    endloop
  endfacet
  facet normal -1.000000 0.000000 0.000000
    outer loop
      vertex -24.000 10.000 1.500
      vertex -24.000 -10.000 1.500
      vertex -24.000 -10.000 4.500
    endloop
  endfacet
  facet normal -1.000000 0.000000 0.000000
    outer loop
      vertex -24.000 10.000 1.500
      vertex -24.000 -10.000 4.500
      vertex -24.000 10.000 4.500
    endloop
  endfacet
  facet normal 1.000000 0.000000 0.000000
    outer loop
      vertex -22.000 -10.000 1.500
      vertex -22.000 10.000 1.500
      vertex -22.000 10.000 4.500
    endloop
  endfacet
  facet normal 1.000000 0.000000 0.000000
    outer loop
      vertex -22.000 -10.000 1.500
      vertex -22.000 10.000 4.500
      vertex -22.000 -10.000 4.500
    endloop
  endfacet
  facet normal 0.000000 0.000000 -1.000000
    outer loop
      vertex -22.000 8.000 1.500
      vertex -20.000 10.000 1.500
      vertex -20.000 8.000 1.500
    endloop
  endfacet
  facet normal 0.000000 0.000000 -1.000000
    outer loop
      vertex -22.000 8.000 1.500
      vertex -22.000 10.000 1.500
      vertex -20.000 10.000 1.500
    endloop
  endfacet
  facet normal 0.000000 0.000000 1.000000
    outer loop
      vertex -22.000 8.000 4.500
      vertex -20.000 8.000 4.500
      vertex -20.000 10.000 4.500
    endloop
  endfacet
  facet normal 0.000000 0.000000 1.000000
    outer loop
      vertex -22.000 8.000 4.500
      vertex -20.000 10.000 4.500
      vertex -22.000 10.000 4.500
    endloop
  endfacet
  facet normal 0.000000 -1.000000 0.000000
    outer loop
      vertex -22.000 8.000 1.500
      vertex -20.000 8.000 1.500
      vertex -20.000 8.000 4.500
    endloop
  endfacet
  facet normal 0.000000 -1.000000 0.000000
    outer loop
      vertex -22.000 8.000 1.500
      vertex -20.000 8.000 4.500
      vertex -22.000 8.000 4.500
    endloop
  endfacet
  facet normal 0.000000 1.000000 0.000000
    outer loop
      vertex -20.000 10.000 1.500
      vertex -22.000 10.000 1.500
      vertex -22.000 10.000 4.500
    endloop
  endfacet
  facet normal 0.000000 1.000000 0.000000
    outer loop
      vertex -20.000 10.000 1.500
      vertex -22.000 10.000 4.500
      vertex -20.000 10.000 4.500
    endloop
  endfacet
  facet normal -1.000000 0.000000 0.000000
    outer loop
      vertex -22.000 10.000 1.500
      vertex -22.000 8.000 1.500
      vertex -22.000 8.000 4.500
    endloop
  endfacet
  facet normal -1.000000 0.000000 0.000000
    outer loop
      vertex -22.000 10.000 1.500
      vertex -22.000 8.000 4.500
      vertex -22.000 10.000 4.500
    endloop
  endfacet
  facet normal 1.000000 0.000000 0.000000
    outer loop
      vertex -20.000 8.000 1.500
      vertex -20.000 10.000 1.500
      vertex -20.000 10.000 4.500
    endloop
  endfacet
  facet normal 1.000000 0.000000 0.000000
    outer loop
      vertex -20.000 8.000 1.500
      vertex -20.000 10.000 4.500
      vertex -20.000 8.000 4.500
    endloop
  endfacet
  facet normal 0.000000 0.000000 -1.000000
    outer loop
      vertex -22.000 -10.000 1.500
      vertex -20.000 -8.000 1.500
      vertex -20.000 -10.000 1.500
    endloop
  endfacet
  facet normal 0.000000 0.000000 -1.000000
    outer loop
      vertex -22.000 -10.000 1.500
      vertex -22.000 -8.000 1.500
      vertex -20.000 -8.000 1.500
    endloop
  endfacet
  facet normal 0.000000 0.000000 1.000000
    outer loop
      vertex -22.000 -10.000 4.500
      vertex -20.000 -10.000 4.500
      vertex -20.000 -8.000 4.500
    endloop
  endfacet
  facet normal 0.000000 0.000000 1.000000
    outer loop
      vertex -22.000 -10.000 4.500
      vertex -20.000 -8.000 4.500
      vertex -22.000 -8.000 4.500
    endloop
  endfacet
  facet normal 0.000000 -1.000000 0.000000
    outer loop
      vertex -22.000 -10.000 1.500
      vertex -20.000 -10.000 1.500
      vertex -20.000 -10.000 4.500
    endloop
  endfacet
  facet normal 0.000000 -1.000000 0.000000
    outer loop
      vertex -22.000 -10.000 1.500
      vertex -20.000 -10.000 4.500
      vertex -22.000 -10.000 4.500
    endloop
  endfacet
  facet normal 0.000000 1.000000 0.000000
    outer loop
      vertex -20.000 -8.000 1.500
      vertex -22.000 -8.000 1.500
      vertex -22.000 -8.000 4.500
    endloop
  endfacet
  facet normal 0.000000 1.000000 0.000000
    outer loop
      vertex -20.000 -8.000 1.500
      vertex -22.000 -8.000 4.500
      vertex -20.000 -8.000 4.500
    endloop
  endfacet
  facet normal -1.000000 0.000000 0.000000
    outer loop
      vertex -22.000 -8.000 1.500
      vertex -22.000 -10.000 1.500
      vertex -22.000 -10.000 4.500
    endloop
  endfacet
  facet normal -1.000000 0.000000 0.000000
    outer loop
      vertex -22.000 -8.000 1.500
      vertex -22.000 -10.000 4.500
      vertex -22.000 -8.000 4.500
    endloop
  endfacet
  facet normal 1.000000 0.000000 0.000000
    outer loop
      vertex -20.000 -10.000 1.500
      vertex -20.000 -8.000 1.500
      vertex -20.000 -8.000 4.500
    endloop
  endfacet
  facet normal 1.000000 0.000000 0.000000
    outer loop
      vertex -20.000 -10.000 1.500
      vertex -20.000 -8.000 4.500
      vertex -20.000 -10.000 4.500
    endloop
  endfacet
  facet normal 0.000000 0.000000 -1.000000
    outer loop
      vertex 22.000 -10.000 1.500
      vertex 24.000 10.000 1.500
      vertex 24.000 -10.000 1.500
    endloop
  endfacet
  facet normal 0.000000 0.000000 -1.000000
    outer loop
      vertex 22.000 -10.000 1.500
      vertex 22.000 10.000 1.500
      vertex 24.000 10.000 1.500
    endloop
  endfacet
  facet normal 0.000000 0.000000 1.000000
    outer loop
      vertex 22.000 -10.000 4.500
      vertex 24.000 -10.000 4.500
      vertex 24.000 10.000 4.500
    endloop
  endfacet
  facet normal 0.000000 0.000000 1.000000
    outer loop
      vertex 22.000 -10.000 4.500
      vertex 24.000 10.000 4.500
      vertex 22.000 10.000 4.500
    endloop
  endfacet
  facet normal 0.000000 -1.000000 0.000000
    outer loop
      vertex 22.000 -10.000 1.500
      vertex 24.000 -10.000 1.500
      vertex 24.000 -10.000 4.500
    endloop
  endfacet
  facet normal 0.000000 -1.000000 0.000000
    outer loop
      vertex 22.000 -10.000 1.500
      vertex 24.000 -10.000 4.500
      vertex 22.000 -10.000 4.500
    endloop
  endfacet
  facet normal 0.000000 1.000000 0.000000
    outer loop
      vertex 24.000 10.000 1.500
      vertex 22.000 10.000 1.500
      vertex 22.000 10.000 4.500
    endloop
  endfacet
  facet normal 0.000000 1.000000 0.000000
    outer loop
      vertex 24.000 10.000 1.500
      vertex 22.000 10.000 4.500
      vertex 24.000 10.000 4.500
    endloop
  endfacet
  facet normal -1.000000 0.000000 0.000000
    outer loop
      vertex 22.000 10.000 1.500
      vertex 22.000 -10.000 1.500
      vertex 22.000 -10.000 4.500
    endloop
  endfacet
  facet normal -1.000000 0.000000 0.000000
    outer loop
      vertex 22.000 10.000 1.500
      vertex 22.000 -10.000 4.500
      vertex 22.000 10.000 4.500
    endloop
  endfacet
  facet normal 1.000000 0.000000 0.000000
    outer loop
      vertex 24.000 -10.000 1.500
      vertex 24.000 10.000 1.500
      vertex 24.000 10.000 4.500
    endloop
  endfacet
  facet normal 1.000000 0.000000 0.000000
    outer loop
      vertex 24.000 -10.000 1.500
      vertex 24.000 10.000 4.500
      vertex 24.000 -10.000 4.500
    endloop
  endfacet
  facet normal 0.000000 0.000000 -1.000000
    outer loop
      vertex 20.000 8.000 1.500
      vertex 22.000 10.000 1.500
      vertex 22.000 8.000 1.500
    endloop
  endfacet
  facet normal 0.000000 0.000000 -1.000000
    outer loop
      vertex 20.000 8.000 1.500
      vertex 20.000 10.000 1.500
      vertex 22.000 10.000 1.500
    endloop
  endfacet
  facet normal 0.000000 0.000000 1.000000
    outer loop
      vertex 20.000 8.000 4.500
      vertex 22.000 8.000 4.500
      vertex 22.000 10.000 4.500
    endloop
  endfacet
  facet normal 0.000000 0.000000 1.000000
    outer loop
      vertex 20.000 8.000 4.500
      vertex 22.000 10.000 4.500
      vertex 20.000 10.000 4.500
    endloop
  endfacet
  facet normal 0.000000 -1.000000 0.000000
    outer loop
      vertex 20.000 8.000 1.500
      vertex 22.000 8.000 1.500
      vertex 22.000 8.000 4.500
    endloop
  endfacet
  facet normal 0.000000 -1.000000 0.000000
    outer loop
      vertex 20.000 8.000 1.500
      vertex 22.000 8.000 4.500
      vertex 20.000 8.000 4.500
    endloop
  endfacet
  facet normal 0.000000 1.000000 0.000000
    outer loop
      vertex 22.000 10.000 1.500
      vertex 20.000 10.000 1.500
      vertex 20.000 10.000 4.500
    endloop
  endfacet
  facet normal 0.000000 1.000000 0.000000
    outer loop
      vertex 22.000 10.000 1.500
      vertex 20.000 10.000 4.500
      vertex 22.000 10.000 4.500
    endloop
  endfacet
  facet normal -1.000000 0.000000 0.000000
    outer loop
      vertex 20.000 10.000 1.500
      vertex 20.000 8.000 1.500
      vertex 20.000 8.000 4.500
    endloop
  endfacet
  facet normal -1.000000 0.000000 0.000000
    outer loop
      vertex 20.000 10.000 1.500
      vertex 20.000 8.000 4.500
      vertex 20.000 10.000 4.500
    endloop
  endfacet
  facet normal 1.000000 0.000000 0.000000
    outer loop
      vertex 22.000 8.000 1.500
      vertex 22.000 10.000 1.500
      vertex 22.000 10.000 4.500
    endloop
  endfacet
  facet normal 1.000000 0.000000 0.000000
    outer loop
      vertex 22.000 8.000 1.500
      vertex 22.000 10.000 4.500
      vertex 22.000 8.000 4.500
    endloop
  endfacet
  facet normal 0.000000 0.000000 -1.000000
    outer loop
      vertex 20.000 -10.000 1.500
      vertex 22.000 -8.000 1.500
      vertex 22.000 -10.000 1.500
    endloop
  endfacet
  facet normal 0.000000 0.000000 -1.000000
    outer loop
      vertex 20.000 -10.000 1.500
      vertex 20.000 -8.000 1.500
      vertex 22.000 -8.000 1.500
    endloop
  endfacet
  facet normal 0.000000 0.000000 1.000000
    outer loop
      vertex 20.000 -10.000 4.500
      vertex 22.000 -10.000 4.500
      vertex 22.000 -8.000 4.500
    endloop
  endfacet
  facet normal 0.000000 0.000000 1.000000
    outer loop
      vertex 20.000 -10.000 4.500
      vertex 22.000 -8.000 4.500
      vertex 20.000 -8.000 4.500
    endloop
  endfacet
  facet normal 0.000000 -1.000000 0.000000
    outer loop
      vertex 20.000 -10.000 1.500
      vertex 22.000 -10.000 1.500
      vertex 22.000 -10.000 4.500
    endloop
  endfacet
  facet normal 0.000000 -1.000000 0.000000
    outer loop
      vertex 20.000 -10.000 1.500
      vertex 22.000 -10.000 4.500
      vertex 20.000 -10.000 4.500
    endloop
  endfacet
  facet normal 0.000000 1.000000 0.000000
    outer loop
      vertex 22.000 -8.000 1.500
      vertex 20.000 -8.000 1.500
      vertex 20.000 -8.000 4.500
    endloop
  endfacet
  facet normal 0.000000 1.000000 0.000000
    outer loop
      vertex 22.000 -8.000 1.500
      vertex 20.000 -8.000 4.500
      vertex 22.000 -8.000 4.500
    endloop
  endfacet
  facet normal -1.000000 0.000000 0.000000
    outer loop
      vertex 20.000 -8.000 1.500
      vertex 20.000 -10.000 1.500
      vertex 20.000 -10.000 4.500
    endloop
  endfacet
  facet normal -1.000000 0.000000 0.000000
    outer loop
      vertex 20.000 -8.000 1.500
      vertex 20.000 -10.000 4.500
      vertex 20.000 -8.000 4.500
    endloop
  endfacet
  facet normal 1.000000 0.000000 0.000000
    outer loop
      vertex 22.000 -10.000 1.500
      vertex 22.000 -8.000 1.500
      vertex 22.000 -8.000 4.500
    endloop
  endfacet
  facet normal 1.000000 0.000000 0.000000
    outer loop
      vertex 22.000 -10.000 1.500
      vertex 22.000 -8.000 4.500
      vertex 22.000 -10.000 4.500
    endloop
  endfacet
endsolid wearable_casing_bottom
